<svg xmlns="http://www.w3.org/2000/svg" xmlns:xlink="http://www.w3.org/1999/xlink" viewBox="0 0 1920 1920"><defs><style>.cls-1{fill:#7f7f7f;}.cls-2,.cls-3{opacity:0.5;}.cls-2{fill:url(#Degradado_sin_nombre_22);}.cls-3{fill:#a0a0a0;}</style><linearGradient id="Degradado_sin_nombre_22" x1="1158.84" y1="761.73" x2="1158.85" y2="761.73" gradientUnits="userSpaceOnUse"><stop offset="0" stop-color="#fff"/><stop offset="1" stop-color="#fff" stop-opacity="0.5"/></linearGradient></defs><g id="CLogo14F22WT_v2" data-name="CLogo14F22WT v2"><path class="cls-1" d="M1163.27,1163.84a281.26,281.26,0,0,0-4.42-402.11L1009.5,911.07a70,70,0,0,0,0,99Z"/><path class="cls-1" d="M1331.89,588c29.82-29.81,26.84-79.2-6.63-104.84a600.52,600.52,0,0,0-365-123.76c-329.3,0-600.28,271-600.28,600.28s271,600.27,600.28,600.27a600.54,600.54,0,0,0,365-123.76c33.47-25.63,36.44-75,6.63-104.84l-72.55-72.54a422.15,422.15,0,0,1-302.23,123.77C724,1380.93,536.66,1192.18,536.66,959.08c0-233.88,189.6-423.48,423.49-423.48A422.16,422.16,0,0,1,1259.91,660Z"/><path class="cls-2" d="M1158.84,761.73h0"/><path class="cls-3" d="M963.83,1245.31c-155.34,0-281.27-125.93-281.27-281.27S808.49,682.77,963.83,682.77a281.66,281.66,0,0,1,194.93,78.28l100.85-100.87A423.45,423.45,0,0,0,959.39,535.59c-233.89,0-423.49,189.6-423.49,423.49s189.6,423.49,423.49,423.49c117.05,0,223-46.79,299.65-123.55l-95.86-95.86C1112.26,1214.24,1041.66,1245.31,963.83,1245.31Z"/></g></svg>