<svg xmlns="http://www.w3.org/2000/svg" xmlns:xlink="http://www.w3.org/1999/xlink" viewBox="0 0 6128.16 721.36"><defs><style>.cls-1,.cls-2{fill:#fff;}.cls-2{stroke:#fff;stroke-miterlimit:10;}.cls-3{opacity:0.5;fill:url(#Degradado_sin_nombre_22);}.cls-4{fill:#afafaf;opacity:0.82;}</style><linearGradient id="Degradado_sin_nombre_22" x1="480.03" y1="241.76" x2="480.04" y2="241.76" gradientUnits="userSpaceOnUse"><stop offset="0" stop-color="#fff"/><stop offset="1" stop-color="#fff" stop-opacity="0.5"/></linearGradient></defs><g id="RotuloCsWt"><path class="cls-1" d="M482.69,483.37A169,169,0,0,0,480,241.76L390.3,331.49a42,42,0,0,0,0,59.48Z"/><path class="cls-2" d="M584,137.36a42,42,0,0,0-4-63A360.85,360.85,0,0,0,360.68,0C162.82,0,0,162.82,0,360.68S162.82,721.36,360.68,721.36A360.8,360.8,0,0,0,580,647a42,42,0,0,0,4-63l-43.59-43.59A254.45,254.45,0,0,1,106.19,360.34c0-140.53,113.92-254.46,254.46-254.46A253.64,253.64,0,0,1,540.76,180.6Z"/><path class="cls-3" d="M480,241.75h0"/><path class="cls-4" d="M362.86,532.32A169,169,0,1,1,480,241.35l60.6-60.61a254.42,254.42,0,0,0-180.39-74.86c-140.54,0-254.46,113.92-254.46,254.46S219.65,614.79,360.19,614.79a253.3,253.3,0,0,0,180.05-74.23L482.64,483A168.43,168.43,0,0,1,362.86,532.32Z"/><path class="cls-1" d="M892.75,371.94c0-118.38,90.08-205.58,211.94-205.58,58.9,0,112,19.63,147.83,58.9l-27.14,27.14c-32.92-33.49-73.34-47.93-119.54-47.93-97.6,0-170.94,71.61-170.94,167.47s73.34,167.48,170.94,167.48c46.2,0,86.62-14.44,119.54-48.51l27.14,27.14c-35.8,39.27-88.93,59.48-148.41,59.48C982.83,577.53,892.75,490.33,892.75,371.94Z"/><path class="cls-1" d="M1559.74,385.8V574.06h-39.27V526.71C1502,557.89,1466.19,577,1416,577c-68.72,0-110.88-35.8-110.88-88.35,0-46.78,30-86.05,117.23-86.05h96.44V384.07c0-52-29.45-80.27-86-80.27-39.27,0-76.22,13.86-101.06,35.8L1313.15,309c30.61-26,75.65-41,123.59-41C1515.28,268,1559.74,307.26,1559.74,385.8Zm-41,97V433.16h-95.29c-58.9,0-78,23.1-78,54.28,0,35.23,28.3,57.17,76.81,57.17C1468.5,544.61,1502.57,522.67,1518.74,482.82Z"/><path class="cls-1" d="M1824.23,268v39.84c-3.47,0-6.93-.58-9.82-.58-63.53,0-102.22,40.43-102.22,112V574.06h-41V270.3h39.27v59.49C1729.52,289.36,1768.21,268,1824.23,268Z"/><path class="cls-1" d="M2205.94,422.18c0,91.83-64.68,154.77-151.3,154.77-50.25,0-92.4-21.94-117.23-62.94v60h-39.27V145.57h41V328.05c25.41-39.27,67-60.05,115.5-60.05C2141.26,268,2205.94,330.36,2205.94,422.18Zm-41,0c0-71-49.09-118.38-113.19-118.38-64.68,0-113.19,47.35-113.19,118.38s48.51,118.39,113.19,118.39C2115.85,540.57,2164.94,493.22,2164.94,422.18Z"/><path class="cls-1" d="M2259.06,422.18c0-90.08,65.83-154.18,154.77-154.18S2568,332.1,2568,422.18,2502.76,577,2413.83,577,2259.06,512.27,2259.06,422.18Zm267.38,0c0-71-47.93-118.38-112.61-118.38s-113.19,47.35-113.19,118.38,48.51,118.39,113.19,118.39S2526.44,493.22,2526.44,422.18Z"/><path class="cls-1" d="M2931.25,397.93V574.06h-41V402c0-64.1-33.49-97-91.24-97-65.26,0-106.26,40.43-106.26,109.73V574.06h-41V270.3H2691v56C2713,289.36,2754,268,2806.51,268,2880.43,268,2931.25,310.73,2931.25,397.93Z"/><path class="cls-1" d="M3308.34,434.89h-254.1c4.62,63.52,53.13,105.68,119.54,105.68,37,0,69.88-13.28,93-39.85l23.1,26.57c-27.14,32.34-69.3,49.66-117.23,49.66-94.71,0-159.39-64.68-159.39-154.77S3076.19,268,3161.66,268s147.26,62.94,147.26,154.18C3308.92,425.65,3308.34,430.27,3308.34,434.89Zm-254.1-30.61h215.41c-5.2-59.48-48.51-101.06-108-101.06C3102.75,303.22,3059.44,344.8,3054.24,404.28Z"/></g></svg>