<svg xmlns="http://www.w3.org/2000/svg" xmlns:xlink="http://www.w3.org/1999/xlink" viewBox="0 0 8118.24 1200.55"><defs><style>.cls-1,.cls-3{fill:#fff;}.cls-2{opacity:0.5;fill:url(#Degradado_sin_nombre_22);}.cls-3{opacity:0.35;}</style><linearGradient id="Degradado_sin_nombre_22" x1="798.91" y1="402.35" x2="798.92" y2="402.35" gradientUnits="userSpaceOnUse"><stop offset="0" stop-color="#fff"/><stop offset="1" stop-color="#fff" stop-opacity="0.5"/></linearGradient></defs><g id="RotuloCsWt"><path class="cls-1" d="M803.34,804.46a281.29,281.29,0,0,0-4.42-402.11L600.07,601.19Z"/><path class="cls-1" d="M1024.74,175.82A600.5,600.5,0,0,0,600.28,0C271,0,0,271,0,600.28s271,600.27,600.28,600.27a600.49,600.49,0,0,0,424.46-175.81L899.41,899.41a422.18,422.18,0,0,1-299.19,123.78c-233.89,0-423.49-189.6-423.49-423.48s189.6-423.49,423.49-423.49A422.16,422.16,0,0,1,900,300.57Z"/><path class="cls-2" d="M798.91,402.35h0"/><path class="cls-3" d="M603.9,885.93c-155.34,0-281.27-125.93-281.27-281.27S448.56,323.39,603.9,323.39a281.66,281.66,0,0,1,194.93,78.28L899.68,300.81a423.42,423.42,0,0,0-300.23-124.6C365.57,176.21,176,365.81,176,599.7s189.6,423.49,423.48,423.49c117,0,223-46.79,299.66-123.55l-95.86-95.86C752.33,854.86,681.73,885.93,603.9,885.93Z"/><path class="cls-1" d="M1489.3,614.17c0-146.07,111.15-253.65,261.49-253.65,72.68,0,138.23,24.22,182.4,72.67l-33.48,33.49c-40.62-41.33-90.49-59.14-147.5-59.14-120.41,0-210.9,88.35-210.9,206.63s90.49,206.63,210.9,206.63c57,0,106.88-17.81,147.5-59.85l33.48,33.49c-44.17,48.45-109.72,73.39-183.11,73.39C1600.45,867.83,1489.3,760.24,1489.3,614.17Z"/><path class="cls-1" d="M2312.25,631.27V863.55h-48.46V805.13c-22.8,38.47-67,62-129,62-84.79,0-136.8-44.18-136.8-109,0-57.71,37-106.17,144.64-106.17h119v-22.8c0-64.12-36.34-99-106.17-99-48.45,0-94,17.1-124.69,44.18L2008,536.51c37.76-32.07,93.34-50.59,152.48-50.59C2257.38,485.92,2312.25,534.37,2312.25,631.27ZM2261.66,751V689.7H2144.09c-72.68,0-96.19,28.5-96.19,67,0,43.46,34.92,70.53,94.77,70.53C2199.67,827.21,2241.71,800.14,2261.66,751Z"/><path class="cls-1" d="M2638.57,485.92v49.16c-4.27,0-8.55-.71-12.11-.71-78.38,0-126.12,49.88-126.12,138.23V863.55h-50.59V488.77h48.45v73.39C2521.72,512.28,2569.46,485.92,2638.57,485.92Z"/><path class="cls-1" d="M3109.53,676.16c0,113.29-79.8,191-186.68,191-62,0-114-27.08-144.64-77.67v74.1h-48.45V334.86h50.59V560c31.35-48.45,82.65-74.1,142.5-74.1C3029.73,485.92,3109.53,562.87,3109.53,676.16Zm-50.59,0c0-87.64-60.56-146.07-139.65-146.07-79.8,0-139.65,58.43-139.65,146.07s59.85,146.07,139.65,146.07C2998.38,822.23,3058.94,763.8,3058.94,676.16Z"/><path class="cls-1" d="M3175.07,676.16c0-111.15,81.23-190.24,191-190.24S3556.27,565,3556.27,676.16s-80.51,191-190.24,191S3175.07,787.31,3175.07,676.16Zm329.9,0c0-87.64-59.14-146.07-138.94-146.07s-139.65,58.43-139.65,146.07S3286.23,822.23,3366,822.23,3505,763.8,3505,676.16Z"/><path class="cls-1" d="M4004.44,646.24V863.55h-50.59V651.22c0-79.09-41.33-119.7-112.58-119.7-80.51,0-131.1,49.87-131.1,135.38V863.55h-50.59V488.77H3708v69.11c27.08-45.6,77.67-72,142.5-72C3941.74,485.92,4004.44,538.64,4004.44,646.24Z"/><path class="cls-1" d="M4469.69,691.84h-313.5c5.7,78.37,65.55,130.39,147.49,130.39,45.6,0,86.21-16.39,114.71-49.17l28.5,32.78c-33.49,39.9-85.5,61.28-144.64,61.28-116.85,0-196.65-79.81-196.65-191s77.66-190.24,183.12-190.24,181.69,77.66,181.69,190.24C4470.41,680.44,4469.69,686.14,4469.69,691.84Zm-313.5-37.77H4422c-6.42-73.39-59.86-124.69-133.24-124.69C4216,529.38,4162.6,580.68,4156.19,654.07Z"/><path class="cls-1" d="M4724.75,810.83l32.06-72c39.9,32.06,103.32,54.87,164.59,54.87,77.67,0,110.44-27.79,110.44-64.84,0-107.59-296.4-37-296.4-222.31,0-80.51,64.12-148.92,200.93-148.92,59.85,0,122.55,15.68,166,44.18l-29.21,72c-44.89-26.37-94.05-39.19-137.51-39.19-77,0-108.31,29.92-108.31,67.69,0,106.16,295.7,37.05,295.7,220.16,0,79.81-64.84,148.21-201.65,148.21C4843.74,870.68,4766.08,846.45,4724.75,810.83Z"/><path class="cls-1" d="M5175.05,673.31c0-114,85.5-194.52,202.36-194.52,118.27,0,203.06,80.52,203.06,194.52s-84.79,195.23-203.06,195.23C5260.55,868.54,5175.05,787.31,5175.05,673.31Zm315.65,0c0-72.68-48.45-119-113.29-119-64.13,0-112.58,46.31-112.58,119s48.45,119,112.58,119C5442.25,792.3,5490.7,746,5490.7,673.31Z"/><path class="cls-1" d="M5764.29,463.12v22.8H5869v71.25H5767.14V863.55h-89.06V557.17h-62.71V485.92h62.71V461.69c0-79.8,47.73-131.81,136.09-131.81,30.64,0,60.56,6.41,80.51,20.66l-24.94,67c-13.54-9.27-30.64-15.68-49.16-15.68C5783.53,401.84,5764.29,422.5,5764.29,463.12Z"/><path class="cls-1" d="M6157.59,842.89c-21.38,17.1-53.44,25.65-85.5,25.65-83.37,0-131.11-44.18-131.11-128.25V557.17h-62.7V485.92H5941V399h89.07v86.93h101.89v71.25H6030.05v181c0,37.05,18.52,57,52.72,57,18.53,0,36.34-5,49.88-15.67Z"/><path class="cls-1" d="M6817.38,483.07,6677,863.55h-85.5l-98.33-262.2-99.75,262.2h-85.5L6168.27,483.07h84.08L6352.82,763.8l104.73-280.73h74.82L6635,765.22l103.32-282.15Z"/><path class="cls-1" d="M7185,640.53v223h-84.08V817.24c-21.37,32.77-62.7,51.3-119.7,51.3-86.93,0-141.79-47.74-141.79-114,0-63.42,42.75-113.29,158.18-113.29H7096v-5.7c0-52-31.35-82.65-94.77-82.65-42.75,0-86.93,14.25-115.43,37.76l-34.91-64.84c40.61-31.35,99.75-47,161-47C7121.61,478.79,7185,530.81,7185,640.53Zm-89.06,104V700.39H7004c-60.56,0-76.95,22.8-76.95,50.58,0,32.07,27.08,52.73,72.68,52.73C7043.23,803.7,7081,783.75,7096,744.56Z"/><path class="cls-1" d="M7519.18,478.79v84.79a113.46,113.46,0,0,0-20.66-2.14c-67.69,0-110.44,39.91-110.44,117.57V863.55H7299V483.07h84.79v55.57C7409.46,498.74,7455.77,478.79,7519.18,478.79Z"/><path class="cls-1" d="M7947.4,701.81H7648.86c10.69,55.58,57,91.2,123.27,91.2,42.75,0,76.23-13.53,103.31-41.32l47.74,54.86c-34.2,40.61-87.64,62-153.19,62-127.54,0-210.19-81.94-210.19-195.23s83.36-194.52,196.65-194.52c111.15,0,192.38,77.67,192.38,196.66C7948.83,682.57,7948.12,693.26,7947.4,701.81Zm-299.25-59.14H7864c-7.12-54.86-49.16-92.62-107.59-92.62C7698.74,550.05,7656.7,587.1,7648.15,642.67Z"/></g></svg>